<?xml version="1.0" encoding="UTF-8" standalone="no"?>
<!-- Created with Inkscape (http://www.inkscape.org/) -->

<svg
   width="1050"
   height="1000"
   viewBox="0 0 277.8125 264.58333"
   version="1.1"
   id="svg1"
   inkscape:version="1.4.2 (ebf0e940d0, 2025-05-08)"
   sodipodi:docname="dice-tiles.svg"
   xmlns:inkscape="http://www.inkscape.org/namespaces/inkscape"
   xmlns:sodipodi="http://sodipodi.sourceforge.net/DTD/sodipodi-0.dtd"
   xmlns="http://www.w3.org/2000/svg"
   xmlns:svg="http://www.w3.org/2000/svg">
  <sodipodi:namedview
     id="namedview1"
     pagecolor="#ffffff"
     bordercolor="#eeeeee"
     borderopacity="1"
     inkscape:showpageshadow="0"
     inkscape:pageopacity="0"
     inkscape:pagecheckerboard="0"
     inkscape:deskcolor="#d1d1d1"
     inkscape:document-units="px"
     showgrid="true"
     inkscape:zoom="2.8507296"
     inkscape:cx="928.00806"
     inkscape:cy="980.45077"
     inkscape:window-width="1920"
     inkscape:window-height="1011"
     inkscape:window-x="0"
     inkscape:window-y="0"
     inkscape:window-maximized="1"
     inkscape:current-layer="layer1">
    <inkscape:grid
       id="grid1"
       units="px"
       originx="0"
       originy="0"
       spacingx="1.3229167"
       spacingy="1.3229167"
       empcolor="#0059e5"
       empopacity="0.30196078"
       color="#0056e5"
       opacity="0.14901961"
       empspacing="0"
       enabled="true"
       visible="true"
       dotted="true" />
    <inkscape:grid
       id="grid15"
       units="px"
       originx="0"
       originy="0"
       spacingx="13.229166"
       spacingy="13.229166"
       empcolor="#00e5c6"
       empopacity="0.30196078"
       color="#00e5c6"
       opacity="0.14901961"
       empspacing="0"
       enabled="true"
       visible="true" />
  </sodipodi:namedview>
  <defs
     id="defs1" />
  <g
     inkscape:label="Слой 1"
     inkscape:groupmode="layer"
     id="layer1">
    <path
       id="path4"
       style="fill:#000000;fill-opacity:1;stroke:none;stroke-width:0.529167;stroke-linejoin:round;stroke-opacity:1"
       d="M 6.6145833,15.213542 A 4.630209,4.630209 0 0 0 1.984375,19.84375 4.630209,4.630209 0 0 0 6.6145833,24.473959 4.630209,4.630209 0 0 0 11.244792,19.84375 4.630209,4.630209 0 0 0 6.6145833,15.213542 Z m 1.346171,3.095418 c 0.1213558,0 0.2327464,0.01729 0.3343466,0.05116 0.1016001,0.03387 0.1891383,0.08288 0.2625162,0.147795 0.073378,0.06491 0.1312994,0.147202 0.1736328,0.24598 0.042333,0.09596 0.063562,0.208658 0.063562,0.338481 0,0.143933 -0.026993,0.289393 -0.080615,0.436149 -0.0508,0.146755 -0.1171097,0.290386 -0.1989542,0.431498 -0.079022,0.141111 -0.1678725,0.278183 -0.2666504,0.410827 -0.095956,0.129823 -0.1905702,0.249602 -0.2837036,0.359668 L 7.7406127,20.90415 v 0.02119 l 0.304891,-0.05943 H 8.858374 v 0.465604 H 7.0760538 v -0.283187 c 0.067733,-0.07055 0.1437431,-0.152846 0.2284099,-0.245979 0.084667,-0.09596 0.1695812,-0.195818 0.254248,-0.30024 0.087489,-0.107245 0.1718867,-0.217324 0.2537313,-0.330213 0.081845,-0.112889 0.1552304,-0.225591 0.2201416,-0.33848 0.064911,-0.115712 0.1157565,-0.227619 0.1524455,-0.334864 0.039511,-0.107244 0.059428,-0.208418 0.059428,-0.304374 0,-0.115711 -0.034069,-0.210326 -0.1018026,-0.283704 -0.064911,-0.0762 -0.1692256,-0.114721 -0.3131592,-0.114721 -0.090311,0 -0.1836138,0.01992 -0.2795695,0.05943 -0.093134,0.03669 -0.1717668,0.08491 -0.236678,0.144177 l -0.2201416,-0.38964 c 0.1100668,-0.09031 0.2342979,-0.162386 0.372587,-0.216008 0.1411114,-0.05644 0.3059711,-0.08475 0.4950602,-0.08475 z m -2.7982787,0.01705 c 0.262467,0 0.4870769,0.03669 0.6733439,0.110071 0.1862669,0.07338 0.3369742,0.17638 0.4526855,0.309025 0.1157113,0.132645 0.2006257,0.290945 0.2542481,0.47439 0.053622,0.183444 0.080098,0.384997 0.080098,0.605131 0,0.200378 -0.025164,0.393542 -0.075964,0.579809 -0.0508,0.186267 -0.1357146,0.351644 -0.2542481,0.495577 -0.1185335,0.143934 -0.2750051,0.259777 -0.4697387,0.347266 -0.1919114,0.08749 -0.430157,0.131258 -0.7152019,0.131258 -0.045156,0 -0.1062177,-0.0018 -0.1824178,-0.0047 -0.073378,-0.0028 -0.1506993,-0.0068 -0.2325439,-0.0124 -0.079022,-0.0028 -0.1555487,-0.0073 -0.2289266,-0.01292 -0.073378,-0.0028 -0.1281589,-0.0068 -0.1648478,-0.0124 v -2.967777 c 0.059267,-0.0085 0.1255763,-0.01554 0.1989542,-0.02119 0.0762,-0.0056 0.1540384,-0.0096 0.2330607,-0.0124 0.079022,-0.0028 0.155032,-0.0047 0.2284099,-0.0047 0.0762,-0.0028 0.1438216,-0.0041 0.2030884,-0.0041 z m 0.046509,0.516764 c -0.062089,0 -0.125258,0.0013 -0.1901692,0.0041 -0.062089,0.0028 -0.1089987,0.0068 -0.1400432,0.0124 v 1.985408 c 0.011289,0.0028 0.029894,0.006 0.055294,0.0088 0.028222,0 0.057839,0.0013 0.088884,0.0041 0.031045,0 0.060661,0.0013 0.088883,0.0041 h 0.063562 c 0.1636891,0 0.2989321,-0.0283 0.4061767,-0.08475 0.1100669,-0.05927 0.1962932,-0.136588 0.2583822,-0.232544 0.064911,-0.09596 0.1099922,-0.206034 0.1353922,-0.330212 0.0254,-0.127 0.038241,-0.256996 0.038241,-0.38964 0,-0.115712 -0.011529,-0.231555 -0.034107,-0.347266 -0.022578,-0.118534 -0.065035,-0.22416 -0.127124,-0.317293 -0.059267,-0.09313 -0.1410407,-0.169143 -0.245463,-0.22841 -0.1044224,-0.05927 -0.2370416,-0.08888 -0.3979086,-0.08888 z" />
    <path
       id="path2-6"
       style="fill:#000000;fill-opacity:1;stroke:none;stroke-opacity:1;baseline-shift:baseline;display:inline;overflow:visible;stroke-width:0.529167;stroke-linejoin:round;stroke-dasharray:none;enable-background:accumulate;stop-color:#000000;stop-opacity:1"
       d="M 6.6152315,27.781249 A 1.3230489,1.3230489 0 0 0 5.4685314,28.441157 L 3.7497733,31.41772 2.0310152,34.394282 a 1.3230489,1.3230489 0 0 0 0,1.324467 1.3230489,1.3230489 0 0 0 1.1467,0.659908 h 3.4375163 3.4375165 a 1.3230489,1.3230489 0 0 0 1.1467,-1.984375 L 9.4806896,31.41772 7.7619315,28.441157 a 1.3230489,1.3230489 0 0 0 -1.1467,-0.659908 z m 0,2.645833 a 0.66145837,0.66145831 0 0 1 0.6614583,0.661459 0.66145837,0.66145831 0 0 1 -0.6614583,0.661458 0.66145837,0.66145831 0 0 1 -0.6614584,-0.661458 0.66145837,0.66145831 0 0 1 0.6614584,-0.661459 z m 0,3.041675 a 0.66145837,0.66145831 0 0 1 0.6614583,0.661458 0.66145837,0.66145831 0 0 1 -0.6614583,0.661459 0.66145837,0.66145831 0 0 1 -0.6614584,-0.661459 0.66145837,0.66145831 0 0 1 0.6614584,-0.661458 z"
       transform="translate(26.457685,13.229169)" />
    <path
       id="path2"
       style="opacity:1;fill:#000000;fill-opacity:1;stroke:none;stroke-opacity:1;baseline-shift:baseline;display:inline;overflow:visible;stroke-width:0.529167;stroke-linejoin:round;stroke-dasharray:none;enable-background:accumulate;stop-color:#000000;stop-opacity:1"
       d="m 6.6151816,27.781246 a 1.3230489,1.3230489 0 0 0 -1.1461832,0.659908 l -1.7187581,2.976563 -1.7187582,2.976562 a 1.3230489,1.3230489 0 0 0 0,1.324467 1.3230489,1.3230489 0 0 0 1.1461833,0.659908 h 3.4375162 3.4375164 a 1.3230489,1.3230489 0 0 0 1.1467,-1.984375 L 9.4806398,31.417717 7.7618817,28.441154 A 1.3230489,1.3230489 0 0 0 6.6151816,27.781246 Z m -5.167e-4,4.630208 a 0.66145837,0.66145831 0 0 1 0.6614583,0.661459 0.66145837,0.66145831 0 0 1 -0.6614583,0.661458 0.66145837,0.66145831 0 0 1 -0.6614584,-0.661458 0.66145837,0.66145831 0 0 1 0.6614584,-0.661459 z"
       transform="translate(13.229085,13.229172)" />
    <path
       id="path2-7"
       style="fill:#000000;fill-opacity:1;stroke:none;stroke-opacity:1;baseline-shift:baseline;display:inline;overflow:visible;stroke-width:0.529167;stroke-linejoin:round;stroke-dasharray:none;enable-background:accumulate;stop-color:#000000;stop-opacity:1"
       d="m 6.615231,27.781249 a 1.3230489,1.3230489 0 0 0 -1.1467,0.659908 L 3.7497729,31.41772 2.0310148,34.394282 a 1.3230489,1.3230489 0 0 0 0,1.324467 1.3230489,1.3230489 0 0 0 1.1467,0.659908 h 3.4375162 3.437516 a 1.3230489,1.3230489 0 0 0 1.1467,-1.984375 L 9.4806892,31.41772 7.7619311,28.441157 A 1.3230489,1.3230489 0 0 0 6.615231,27.781249 Z m 0,1.984375 A 0.66145837,0.66145831 0 0 1 7.2766894,30.427082 0.66145837,0.66145831 0 0 1 6.615231,31.088541 0.66145837,0.66145831 0 0 1 5.9537727,30.427082 0.66145837,0.66145831 0 0 1 6.615231,29.765624 Z m -2.291333,3.96875 A 0.66145837,0.66145831 0 0 1 4.9853564,34.395832 0.66145837,0.66145831 0 0 1 4.323898,35.057291 0.66145837,0.66145831 0 0 1 3.6624397,34.395832 0.66145837,0.66145831 0 0 1 4.323898,33.734374 Z m 4.582666,0 A 0.66145837,0.66145831 0 0 1 9.5680224,34.395832 0.66145837,0.66145831 0 0 1 8.906564,35.057291 0.66145837,0.66145831 0 0 1 8.2451057,34.395832 0.66145837,0.66145831 0 0 1 8.906564,33.734374 Z"
       transform="translate(39.686852,13.229169)" />
    <path
       id="path2-8"
       style="fill:#000000;fill-opacity:1;stroke:none;stroke-opacity:1;baseline-shift:baseline;display:inline;overflow:visible;stroke-width:0.529167;stroke-linejoin:round;stroke-dasharray:none;enable-background:accumulate;stop-color:#000000;stop-opacity:1"
       d="m 6.6152306,27.781249 a 1.3230489,1.3230489 0 0 0 -1.1467,0.659908 L 3.7497725,31.41772 2.0310143,34.394282 a 1.3230489,1.3230489 0 0 0 0,1.324467 1.3230489,1.3230489 0 0 0 1.1467001,0.659908 h 3.4375162 3.4375164 a 1.3230489,1.3230489 0 0 0 1.1467,-1.984375 L 9.4806888,31.41772 7.7619307,28.441157 A 1.3230489,1.3230489 0 0 0 6.6152306,27.781249 Z m 0,1.984375 A 0.66145837,0.66145831 0 0 1 7.276689,30.427082 0.66145837,0.66145831 0 0 1 6.6152306,31.088541 0.66145837,0.66145831 0 0 1 5.9537723,30.427082 0.66145837,0.66145831 0 0 1 6.6152306,29.765624 Z m 0,2.541964 A 0.66145837,0.66145831 0 0 1 7.276689,32.969046 0.66145837,0.66145831 0 0 1 6.6152306,33.630504 0.66145837,0.66145831 0 0 1 5.9537723,32.969046 0.66145837,0.66145831 0 0 1 6.6152306,32.307588 Z m -2.291333,1.426786 A 0.66145837,0.66145831 0 0 1 4.985356,34.395832 0.66145837,0.66145831 0 0 1 4.3238976,35.057291 0.66145837,0.66145831 0 0 1 3.6624393,34.395832 0.66145837,0.66145831 0 0 1 4.3238976,33.734374 Z m 4.582666,0 a 0.66145837,0.66145831 0 0 1 0.6614583,0.661458 0.66145837,0.66145831 0 0 1 -0.6614583,0.661459 0.66145837,0.66145831 0 0 1 -0.6614583,-0.661459 0.66145837,0.66145831 0 0 1 0.6614583,-0.661458 z"
       transform="translate(52.916018,13.229169)" />
    <path
       id="rect3-4"
       style="fill:#000000;fill-opacity:1;stroke:none;stroke-width:0.529167;stroke-linejoin:round;stroke-dasharray:none;stroke-opacity:1"
       d="M 17.197917 68.791666 C 16.465021 68.791666 15.875 69.381687 15.875 70.114583 L 15.875 75.40625 C 15.875 76.139145 16.465021 76.729166 17.197917 76.729166 L 22.489583 76.729166 C 23.222479 76.729166 23.8125 76.139145 23.8125 75.40625 L 23.8125 70.114583 C 23.8125 69.381687 23.222479 68.791666 22.489583 68.791666 L 17.197917 68.791666 z M 19.84375 72.098958 A 0.66145837 0.66145831 0 0 1 20.505208 72.760416 A 0.66145837 0.66145831 0 0 1 19.84375 73.421875 A 0.66145837 0.66145831 0 0 1 19.182292 72.760416 A 0.66145837 0.66145831 0 0 1 19.84375 72.098958 z " />
    <path
       id="rect3-7"
       style="fill:#000000;fill-opacity:1;stroke:none;stroke-width:0.529167;stroke-linejoin:round;stroke-dasharray:none;stroke-opacity:1"
       d="M 30.427083 68.791666 C 29.694187 68.791666 29.104166 69.381687 29.104166 70.114583 L 29.104166 75.40625 C 29.104166 76.139145 29.694187 76.729166 30.427083 76.729166 L 35.71875 76.729166 C 36.451646 76.729166 37.041666 76.139145 37.041666 75.40625 L 37.041666 70.114583 C 37.041666 69.381687 36.451646 68.791666 35.71875 68.791666 L 30.427083 68.791666 z M 34.726562 70.445312 A 0.66145837 0.66145831 0 0 1 35.388021 71.10677 A 0.66145837 0.66145831 0 0 1 34.726562 71.768229 A 0.66145837 0.66145831 0 0 1 34.065104 71.10677 A 0.66145837 0.66145831 0 0 1 34.726562 70.445312 z M 31.419271 73.752604 A 0.66145837 0.66145831 0 0 1 32.080729 74.414062 A 0.66145837 0.66145831 0 0 1 31.419271 75.07552 A 0.66145837 0.66145831 0 0 1 30.757812 74.414062 A 0.66145837 0.66145831 0 0 1 31.419271 73.752604 z " />
    <path
       id="rect3-0"
       style="fill:#000000;fill-opacity:1;stroke:none;stroke-width:0.529167;stroke-linejoin:round;stroke-dasharray:none;stroke-opacity:1"
       d="M 43.65625 68.791666 C 42.923354 68.791666 42.333333 69.381687 42.333333 70.114583 L 42.333333 75.40625 C 42.333333 76.139145 42.923354 76.729166 43.65625 76.729166 L 48.947916 76.729166 C 49.680812 76.729166 50.270833 76.139145 50.270833 75.40625 L 50.270833 70.114583 C 50.270833 69.381687 49.680812 68.791666 48.947916 68.791666 L 43.65625 68.791666 z M 47.955729 70.445312 A 0.66145837 0.66145831 0 0 1 48.617187 71.10677 A 0.66145837 0.66145831 0 0 1 47.955729 71.768229 A 0.66145837 0.66145831 0 0 1 47.294271 71.10677 A 0.66145837 0.66145831 0 0 1 47.955729 70.445312 z M 46.302083 72.098958 A 0.66145837 0.66145831 0 0 1 46.963541 72.760416 A 0.66145837 0.66145831 0 0 1 46.302083 73.421875 A 0.66145837 0.66145831 0 0 1 45.640625 72.760416 A 0.66145837 0.66145831 0 0 1 46.302083 72.098958 z M 44.648437 73.752604 A 0.66145837 0.66145831 0 0 1 45.309896 74.414062 A 0.66145837 0.66145831 0 0 1 44.648437 75.07552 A 0.66145837 0.66145831 0 0 1 43.986979 74.414062 A 0.66145837 0.66145831 0 0 1 44.648437 73.752604 z " />
    <path
       id="rect3-5"
       style="fill:#000000;fill-opacity:1;stroke:none;stroke-width:0.529167;stroke-linejoin:round;stroke-dasharray:none;stroke-opacity:1"
       d="M 56.885416 68.791666 C 56.15252 68.791666 55.5625 69.381687 55.5625 70.114583 L 55.5625 75.40625 C 55.5625 76.139145 56.15252 76.729166 56.885416 76.729166 L 62.177083 76.729166 C 62.909979 76.729166 63.5 76.139145 63.5 75.40625 L 63.5 70.114583 C 63.5 69.381687 62.909979 68.791666 62.177083 68.791666 L 56.885416 68.791666 z M 57.877604 70.445312 A 0.66145837 0.66145831 0 0 1 58.539062 71.10677 A 0.66145837 0.66145831 0 0 1 57.877604 71.768229 A 0.66145837 0.66145831 0 0 1 57.216145 71.10677 A 0.66145837 0.66145831 0 0 1 57.877604 70.445312 z M 61.184895 70.445312 A 0.66145837 0.66145831 0 0 1 61.846354 71.10677 A 0.66145837 0.66145831 0 0 1 61.184895 71.768229 A 0.66145837 0.66145831 0 0 1 60.523437 71.10677 A 0.66145837 0.66145831 0 0 1 61.184895 70.445312 z M 57.877604 73.752604 A 0.66145837 0.66145831 0 0 1 58.539062 74.414062 A 0.66145837 0.66145831 0 0 1 57.877604 75.07552 A 0.66145837 0.66145831 0 0 1 57.216145 74.414062 A 0.66145837 0.66145831 0 0 1 57.877604 73.752604 z M 61.184895 73.752604 A 0.66145837 0.66145831 0 0 1 61.846354 74.414062 A 0.66145837 0.66145831 0 0 1 61.184895 75.07552 A 0.66145837 0.66145831 0 0 1 60.523437 74.414062 A 0.66145837 0.66145831 0 0 1 61.184895 73.752604 z " />
    <path
       id="rect3-46"
       style="fill:#000000;fill-opacity:1;stroke:none;stroke-width:0.529167;stroke-linejoin:round;stroke-dasharray:none;stroke-opacity:1"
       d="M 70.114583 68.791666 C 69.381687 68.791666 68.791666 69.381687 68.791666 70.114583 L 68.791666 75.40625 C 68.791666 76.139145 69.381687 76.729166 70.114583 76.729166 L 75.40625 76.729166 C 76.139145 76.729166 76.729166 76.139145 76.729166 75.40625 L 76.729166 70.114583 C 76.729166 69.381687 76.139145 68.791666 75.40625 68.791666 L 70.114583 68.791666 z M 71.10677 70.445312 A 0.66145837 0.66145831 0 0 1 71.768229 71.10677 A 0.66145837 0.66145831 0 0 1 71.10677 71.768229 A 0.66145837 0.66145831 0 0 1 70.445312 71.10677 A 0.66145837 0.66145831 0 0 1 71.10677 70.445312 z M 74.414062 70.445312 A 0.66145837 0.66145831 0 0 1 75.07552 71.10677 A 0.66145837 0.66145831 0 0 1 74.414062 71.768229 A 0.66145837 0.66145831 0 0 1 73.752604 71.10677 A 0.66145837 0.66145831 0 0 1 74.414062 70.445312 z M 72.760416 72.098958 A 0.66145837 0.66145831 0 0 1 73.421875 72.760416 A 0.66145837 0.66145831 0 0 1 72.760416 73.421875 A 0.66145837 0.66145831 0 0 1 72.098958 72.760416 A 0.66145837 0.66145831 0 0 1 72.760416 72.098958 z M 71.10677 73.752604 A 0.66145837 0.66145831 0 0 1 71.768229 74.414062 A 0.66145837 0.66145831 0 0 1 71.10677 75.07552 A 0.66145837 0.66145831 0 0 1 70.445312 74.414062 A 0.66145837 0.66145831 0 0 1 71.10677 73.752604 z M 74.414062 73.752604 A 0.66145837 0.66145831 0 0 1 75.07552 74.414062 A 0.66145837 0.66145831 0 0 1 74.414062 75.07552 A 0.66145837 0.66145831 0 0 1 73.752604 74.414062 A 0.66145837 0.66145831 0 0 1 74.414062 73.752604 z " />
    <path
       id="rect3-77"
       style="fill:#000000;fill-opacity:1;stroke:none;stroke-width:0.529167;stroke-linejoin:round;stroke-dasharray:none;stroke-opacity:1"
       d="M 83.343749 68.791666 C 82.610854 68.791666 82.020833 69.381687 82.020833 70.114583 L 82.020833 75.40625 C 82.020833 76.139145 82.610854 76.729166 83.343749 76.729166 L 88.635416 76.729166 C 89.368312 76.729166 89.958333 76.139145 89.958333 75.40625 L 89.958333 70.114583 C 89.958333 69.381687 89.368312 68.791666 88.635416 68.791666 L 83.343749 68.791666 z M 84.335937 70.445312 A 0.66145837 0.66145831 0 0 1 84.997395 71.10677 A 0.66145837 0.66145831 0 0 1 84.335937 71.768229 A 0.66145837 0.66145831 0 0 1 83.674479 71.10677 A 0.66145837 0.66145831 0 0 1 84.335937 70.445312 z M 85.989583 70.445312 A 0.66145837 0.66145831 0 0 1 86.651041 71.10677 A 0.66145837 0.66145831 0 0 1 85.989583 71.768229 A 0.66145837 0.66145831 0 0 1 85.328124 71.10677 A 0.66145837 0.66145831 0 0 1 85.989583 70.445312 z M 87.643229 70.445312 A 0.66145837 0.66145831 0 0 1 88.304687 71.10677 A 0.66145837 0.66145831 0 0 1 87.643229 71.768229 A 0.66145837 0.66145831 0 0 1 86.98177 71.10677 A 0.66145837 0.66145831 0 0 1 87.643229 70.445312 z M 84.335937 73.752604 A 0.66145837 0.66145831 0 0 1 84.997395 74.414062 A 0.66145837 0.66145831 0 0 1 84.335937 75.07552 A 0.66145837 0.66145831 0 0 1 83.674479 74.414062 A 0.66145837 0.66145831 0 0 1 84.335937 73.752604 z M 85.989583 73.752604 A 0.66145837 0.66145831 0 0 1 86.651041 74.414062 A 0.66145837 0.66145831 0 0 1 85.989583 75.07552 A 0.66145837 0.66145831 0 0 1 85.328124 74.414062 A 0.66145837 0.66145831 0 0 1 85.989583 73.752604 z M 87.643229 73.752604 A 0.66145837 0.66145831 0 0 1 88.304687 74.414062 A 0.66145837 0.66145831 0 0 1 87.643229 75.07552 A 0.66145837 0.66145831 0 0 1 86.98177 74.414062 A 0.66145837 0.66145831 0 0 1 87.643229 73.752604 z " />
    <path
       id="path3"
       style="fill:#000000;fill-opacity:1;stroke:none;stroke-width:0.529167;stroke-linejoin:round;stroke-dasharray:none;stroke-opacity:1"
       d="M 33.072916 15.213542 A 4.630209 4.630209 0 0 0 28.442708 19.84375 A 4.630209 4.630209 0 0 0 33.072916 24.473958 A 4.630209 4.630209 0 0 0 37.703125 19.84375 A 4.630209 4.630209 0 0 0 33.072916 15.213542 z M 33.11064 16.562813 C 33.727432 16.562813 34.230927 16.865013 34.621142 17.469218 C 35.011358 18.073422 35.20612 18.860036 35.20612 19.82928 C 35.20612 20.785937 35.011358 21.566536 34.621142 22.17074 C 34.230927 22.774944 33.714883 23.077144 33.072916 23.077144 C 32.430949 23.077144 31.914905 22.768411 31.524691 22.151619 C 31.134475 21.534827 30.939197 20.742197 30.939197 19.772953 C 30.939197 18.860353 31.134475 18.098836 31.524691 17.488338 C 31.914905 16.871546 32.443498 16.562813 33.11064 16.562813 z M 33.082218 16.808276 C 32.257732 16.808276 31.845601 17.824807 31.845601 19.857703 C 31.845601 21.840248 32.254723 22.831681 33.072916 22.831681 C 33.891109 22.831681 34.300232 21.837239 34.300232 19.848401 C 34.300232 18.860275 34.196317 18.107782 33.988623 17.591691 C 33.780927 17.069306 33.478728 16.808276 33.082218 16.808276 z " />
    <path
       id="path3-2"
       style="fill:#000000;fill-opacity:1;stroke:none;stroke-width:0.529167;stroke-linejoin:round;stroke-dasharray:none;stroke-opacity:1"
       d="M 19.84375 15.213542 A 4.630209 4.630209 0 0 0 15.213542 19.84375 A 4.630209 4.630209 0 0 0 19.84375 24.473958 A 4.630209 4.630209 0 0 0 24.473958 19.84375 A 4.630209 4.630209 0 0 0 19.84375 15.213542 z M 20.230806 16.562813 L 20.306254 16.581933 L 20.306254 22.246187 C 20.306254 22.472764 20.362981 22.620856 20.476269 22.690088 C 20.589558 22.75932 20.831507 22.796965 21.20284 22.803259 L 21.20284 22.944853 L 18.597314 22.944853 L 18.597314 22.803259 C 18.949766 22.790672 19.185699 22.740479 19.305281 22.652364 C 19.431157 22.557957 19.494417 22.362678 19.494417 22.06687 L 19.494417 17.790128 C 19.494417 17.49432 19.400044 17.346228 19.21123 17.346228 C 19.097942 17.346228 18.871033 17.415504 18.531169 17.553967 L 18.531169 17.422192 L 20.230806 16.562813 z " />
    <path
       style="fill:none;stroke:none;stroke-width:0.3175;stroke-opacity:1"
       d="m 18.142532,23.107717 0.539287,-0.539654 V 20.463051 18.35804 l -0.455536,-0.0063 -0.455537,-0.0063 1.609892,-1.073097 1.609892,-1.073096 0.0059,3.184482 0.0059,3.184482 0.539205,0.539571 0.539205,0.539572 h -2.238723 -2.238731 z"
       id="path22" />
    <path
       id="path2-62"
       style="baseline-shift:baseline;display:inline;overflow:visible;fill:#000000;fill-opacity:1;stroke:none;stroke-width:0.529167;stroke-linejoin:round;stroke-dasharray:none;stroke-opacity:1;enable-background:accumulate;stop-color:#000000;stop-opacity:1"
       d="M 6.6145833,41.010417 A 1.3230489,1.3230489 0 0 0 5.4684,41.670325 L 3.7496419,44.646887 2.0308838,47.62345 a 1.3230489,1.3230489 0 0 0 0,1.324467 1.3230489,1.3230489 0 0 0 1.1461832,0.659908 h 3.4375163 3.4375157 a 1.3230489,1.3230489 0 0 0 1.1467,-1.984375 L 9.4800415,44.646887 7.7612833,41.670325 a 1.3230489,1.3230489 0 0 0 -1.1467,-0.659908 z m -1.4521077,3.756876 c 0.2624664,0 0.4870774,0.03669 0.6733439,0.110071 0.1862665,0.07338 0.3369745,0.176381 0.4526855,0.309025 0.115711,0.132645 0.2006259,0.290946 0.2542481,0.47439 0.053622,0.183444 0.080098,0.384998 0.080098,0.605131 0,0.200378 -0.025164,0.39406 -0.075964,0.580326 -0.0508,0.186267 -0.1357148,0.351127 -0.2542481,0.495061 -0.1185332,0.143933 -0.2750056,0.259776 -0.4697387,0.347265 -0.191911,0.08749 -0.4301576,0.131258 -0.7152019,0.131258 -0.045155,0 -0.1062178,-0.0013 -0.1824178,-0.0041 -0.073378,-0.0028 -0.1506995,-0.0073 -0.2325439,-0.01292 -0.079022,-0.0028 -0.1555489,-0.0073 -0.2289266,-0.01292 -0.073378,-0.0028 -0.128159,-0.0068 -0.1648478,-0.0124 v -2.967778 c 0.059267,-0.0085 0.1255765,-0.01554 0.1989542,-0.02119 0.0762,-0.0056 0.1540386,-0.0096 0.2330608,-0.0124 0.079022,-0.0028 0.1550321,-0.0041 0.2284098,-0.0041 0.0762,-0.0028 0.1438217,-0.0047 0.2030884,-0.0047 z m 3.0437418,0.02119 h 0.4532023 v 1.718758 h 0.4656047 v 0.440283 H 8.6594197 v 0.825789 H 8.1473063 V 46.947522 H 6.8641805 v -0.313159 z m -2.997233,0.495577 c -0.062089,0 -0.1252583,0.0013 -0.1901693,0.0041 -0.062089,0.0028 -0.1089987,0.0073 -0.1400431,0.01292 v 1.985408 c 0.011289,0.0028 0.029894,0.0054 0.055294,0.0083 0.028222,0 0.057839,0.0013 0.088884,0.0041 0.031044,0 0.060661,0.0013 0.088883,0.0041 h 0.063562 c 0.1636887,0 0.2989324,-0.02779 0.4061767,-0.08423 0.1100666,-0.05927 0.1962934,-0.137105 0.2583822,-0.23306 0.064911,-0.09596 0.1099923,-0.206035 0.1353922,-0.330213 0.0254,-0.127 0.038241,-0.256996 0.038241,-0.38964 0,-0.115711 -0.011529,-0.231038 -0.034106,-0.346749 -0.022578,-0.118533 -0.065035,-0.224677 -0.1271241,-0.31781 -0.059267,-0.09313 -0.1410409,-0.169143 -0.245463,-0.22841 -0.1044222,-0.05927 -0.237042,-0.08888 -0.3979085,-0.08888 z m 2.9589924,0.220141 -0.1436604,0.304891 -0.4402832,0.571542 -0.2118734,0.160713 0.2713013,-0.03411 h 0.5038452 v -0.647506 l 0.037724,-0.355534 z" />
    <path
       style="fill:none;stroke:none;stroke-width:0.3175;stroke-opacity:1"
       d="m 4.913365,23.107718 0.539287,-0.539654 v -2.105012 -2.105011 l -0.455536,-0.0063 -0.455537,-0.0063 1.609892,-1.073097 1.609892,-1.073096 0.0059,3.184482 0.0059,3.184482 0.539205,0.539571 0.539205,0.539572 H 6.61285 4.374119 Z"
       id="path22-7" />
    <text
       xml:space="preserve"
       style="font-weight:bold;font-size:4.23333px;line-height:1;font-family:'PT Sans';-inkscape-font-specification:'PT Sans Bold';text-align:center;writing-mode:lr-tb;direction:ltr;text-anchor:middle;fill:#b8b8b8;fill-opacity:1;stroke:none;stroke-width:0.529167;stroke-linejoin:round;stroke-opacity:1"
       x="-2.9760358"
       y="30.786913"
       id="text1-3"><tspan
         sodipodi:role="line"
         id="tspan1-5"
         style="text-align:center;text-anchor:middle;fill:#b8b8b8;fill-opacity:1;stroke-width:0.529167"
         x="-2.9760358"
         y="30.786913" /></text>
    <path
       id="rect5"
       style="fill:#000000;fill-opacity:1;stroke:none;stroke-width:0.529167;stroke-linejoin:round;stroke-opacity:1"
       d="m 3.96875,68.791667 c -0.7328958,0 -1.3229167,0.59002 -1.3229167,1.322916 v 5.291667 c 0,0.732896 0.5900209,1.322917 1.3229167,1.322917 h 5.2916666 c 0.7328958,0 1.3229164,-0.590021 1.3229164,-1.322917 v -5.291667 c 0,-0.732896 -0.5900206,-1.322916 -1.3229164,-1.322916 z m 4.5382242,2.43396 0.1224732,0.436149 c -0.141111,0.02258 -0.2705903,0.06635 -0.3891236,0.131258 -0.1185332,0.06491 -0.2246768,0.142749 -0.31781,0.233061 -0.090311,0.09031 -0.1676329,0.192002 -0.232544,0.30489 -0.062089,0.110067 -0.1058581,0.224082 -0.1312581,0.342615 0.056444,-0.07055 0.1298306,-0.129789 0.2201416,-0.177767 0.090311,-0.0508 0.2030141,-0.07596 0.3384806,-0.07596 0.1269999,0 0.2441554,0.0194 0.3513998,0.05891 0.1072443,0.03951 0.1992354,0.09874 0.2754354,0.177767 0.0762,0.0762 0.1354336,0.170815 0.1777669,0.283704 0.042333,0.112888 0.063562,0.242884 0.063562,0.38964 0,0.138289 -0.024369,0.266456 -0.072347,0.384989 -0.045155,0.118534 -0.1101536,0.221537 -0.1948202,0.309025 -0.084667,0.08749 -0.1876696,0.15694 -0.309025,0.20774 -0.1185333,0.0508 -0.2493245,0.07596 -0.3932577,0.07596 -0.1467554,0 -0.2825158,-0.02254 -0.4066935,-0.0677 -0.1213554,-0.04798 -0.2269823,-0.11874 -0.3172933,-0.211873 -0.090311,-0.09313 -0.1610734,-0.209772 -0.2118734,-0.350883 -0.0508,-0.141111 -0.075964,-0.305177 -0.075964,-0.491443 0,-0.2794 0.039317,-0.531799 0.118339,-0.757577 0.081844,-0.225777 0.1906118,-0.422083 0.3260783,-0.588594 0.1382888,-0.169334 0.2979017,-0.304577 0.4785238,-0.406177 0.1834443,-0.104422 0.3766097,-0.173873 0.5798095,-0.207739 z m -3.3444986,0.01705 c 0.2624664,0 0.4870774,0.03669 0.6733439,0.110071 0.1862665,0.07338 0.3369745,0.17638 0.4526855,0.309025 0.115711,0.132644 0.2006259,0.290945 0.2542481,0.474389 0.053622,0.183445 0.080098,0.384998 0.080098,0.605131 0,0.200378 -0.025164,0.393543 -0.075964,0.57981 -0.0508,0.186266 -0.1357148,0.351644 -0.2542481,0.495577 -0.1185332,0.143933 -0.2750056,0.259777 -0.4697387,0.347266 -0.191911,0.08749 -0.4301577,0.131258 -0.7152019,0.131258 -0.045155,0 -0.1062178,-0.0018 -0.1824178,-0.0047 -0.073378,-0.0028 -0.1506995,-0.0068 -0.2325439,-0.0124 -0.079022,-0.0028 -0.1555489,-0.0073 -0.2289266,-0.01292 -0.073378,-0.0028 -0.128159,-0.0068 -0.1648478,-0.0124 v -2.967778 c 0.059267,-0.0085 0.1255765,-0.01554 0.1989542,-0.02119 0.0762,-0.0056 0.1540386,-0.0096 0.2330607,-0.0124 0.079022,-0.0028 0.1550322,-0.0047 0.2284099,-0.0047 0.0762,-0.0028 0.1438217,-0.0041 0.2030884,-0.0041 z m 0.046509,0.516764 c -0.062089,0 -0.1252582,0.0013 -0.1901692,0.0041 -0.062089,0.0028 -0.1089987,0.0068 -0.1400432,0.0124 v 1.985408 c 0.011289,0.0028 0.029894,0.006 0.055294,0.0088 0.028222,0 0.057839,0.0013 0.088884,0.0041 0.031044,0 0.060661,0.0013 0.088883,0.0041 h 0.063562 c 0.1636887,0 0.2989324,-0.02831 0.4061767,-0.08475 0.1100666,-0.05927 0.1962933,-0.136588 0.2583822,-0.232544 0.064911,-0.09596 0.1099922,-0.206035 0.1353922,-0.330212 0.0254,-0.127 0.038241,-0.256996 0.038241,-0.389641 0,-0.115711 -0.011529,-0.231554 -0.034107,-0.347265 -0.022578,-0.118534 -0.065035,-0.22416 -0.127124,-0.317294 -0.059267,-0.09313 -0.1410409,-0.169143 -0.245463,-0.228409 -0.1044222,-0.05927 -0.237042,-0.08888 -0.3979086,-0.08888 z m 2.7770915,1.12603 c -0.1128888,0 -0.2088156,0.02516 -0.2878377,0.07596 -0.0762,0.0508 -0.1296693,0.110034 -0.1607137,0.177767 -0.00564,0.03104 -0.00878,0.05804 -0.00878,0.08061 v 0.0677 c 0,0.06773 0.010217,0.135355 0.029972,0.203089 0.019756,0.06491 0.048061,0.124144 0.084749,0.177767 0.039511,0.0508 0.088528,0.09326 0.1477945,0.127124 0.059267,0.03104 0.130029,0.04651 0.2118734,0.04651 0.1326444,0 0.2400998,-0.04508 0.3219442,-0.135392 0.084667,-0.09031 0.1266072,-0.206155 0.1266072,-0.347266 0,-0.316088 -0.1551604,-0.473872 -0.4656046,-0.473872 z" />
    <path
       id="path2-9"
       style="baseline-shift:baseline;display:inline;overflow:visible;fill:#000000;fill-opacity:1;stroke:none;stroke-width:0.529167;stroke-linejoin:round;stroke-dasharray:none;stroke-opacity:1;enable-background:accumulate;stop-color:#000000"
       d="M 6.6145833 252.67708 A 1.3230489 1.3230489 0 0 0 5.4684 253.33699 L 3.7496419 256.31355 L 2.0308838 259.29011 A 1.3230489 1.3230489 0 0 0 2.0308838 260.61458 A 1.3230489 1.3230489 0 0 0 3.177067 261.27449 L 6.6145833 261.27449 L 10.0521 261.27449 A 1.3230489 1.3230489 0 0 0 11.1988 259.29011 L 9.4800414 256.31355 L 7.7612833 253.33699 A 1.3230489 1.3230489 0 0 0 6.6145833 252.67708 z M 7.0254109 256.43396 C 7.1467664 256.43396 7.2581575 256.45125 7.3597574 256.48512 C 7.4613574 256.51898 7.548896 256.568 7.6222737 256.63291 C 7.6956514 256.69782 7.7535732 256.78011 7.7959065 256.87889 C 7.8382398 256.97485 7.8589518 257.08755 7.8589518 257.21737 C 7.8589518 257.36131 7.8324755 257.50677 7.7788533 257.65352 C 7.7280533 257.80028 7.6617434 257.94391 7.579899 258.08502 C 7.5008769 258.22613 7.4120263 258.3632 7.3132487 258.49585 C 7.2172932 258.62567 7.1226783 258.74545 7.029545 258.85552 L 6.8052693 259.02915 L 6.8052693 259.05034 L 7.1096435 258.99091 L 7.9225138 258.99091 L 7.9225138 259.45651 L 6.1407104 259.45651 L 6.1407104 259.17333 C 6.2084437 259.10277 6.2844536 259.02048 6.3691202 258.92735 C 6.4537868 258.83139 6.5381849 258.73153 6.6228515 258.62711 C 6.7103403 258.51986 6.7952552 258.40978 6.8770996 258.29689 C 6.9589439 258.184 7.0323301 258.0713 7.0972412 257.95841 C 7.1621522 257.8427 7.2129978 257.73079 7.2496866 257.62355 C 7.2891977 257.51631 7.3085978 257.41513 7.3085978 257.31918 C 7.3085978 257.20346 7.2750452 257.10885 7.207312 257.03547 C 7.1424009 256.95927 7.038086 256.92075 6.8941528 256.92075 C 6.8038418 256.92075 6.7105388 256.94067 6.6145833 256.98018 C 6.52145 257.01687 6.4422995 257.06509 6.3773885 257.12436 L 6.1572469 256.73472 C 6.2673134 256.6444 6.3915452 256.57233 6.5298339 256.51871 C 6.6709449 256.46226 6.8363222 256.43396 7.0254109 256.43396 z M 8.921936 256.43396 C 9.2775357 256.43396 9.538323 256.5595 9.7048339 256.81068 C 9.8713449 257.05903 9.9544311 257.44588 9.9544311 257.97082 C 9.9544311 258.49293 9.8642687 258.88109 9.6836466 259.13509 C 9.5058467 259.38909 9.250307 259.51594 8.9172851 259.51594 C 8.5645076 259.51594 8.3050322 259.38332 8.1385213 259.11803 C 7.9720103 258.84992 7.8889241 258.46753 7.8889241 257.97082 C 7.8889241 257.45153 7.9777746 257.06651 8.1555745 256.81533 C 8.3333743 256.56133 8.588914 256.43396 8.921936 256.43396 z M 4.7562988 256.45101 C 5.0187652 256.45101 5.2428594 256.4877 5.4291259 256.56108 C 5.6153925 256.63446 5.7666172 256.73746 5.8823283 256.87011 C 5.9980393 257.00275 6.0824374 257.16105 6.1360595 257.3445 C 6.1896817 257.52794 6.2166748 257.72949 6.2166748 257.94963 C 6.2166748 258.15001 6.1915104 258.34317 6.1407104 258.52944 C 6.0899105 258.7157 6.0049956 258.88108 5.8864624 259.02501 C 5.7679291 259.16895 5.6114568 259.28479 5.4167236 259.37228 C 5.2248126 259.45977 4.9860492 259.50354 4.701005 259.50354 C 4.6558495 259.50354 4.5953039 259.50171 4.519104 259.49889 C 4.4457263 259.49607 4.3678876 259.49213 4.2860433 259.48649 C 4.2070211 259.48366 4.1310112 259.47921 4.0576334 259.47357 C 3.9842557 259.47074 3.9294745 259.46681 3.8927856 259.46116 L 3.8927856 256.49339 C 3.9520522 256.48492 4.0183622 256.47784 4.0917399 256.4722 C 4.1679398 256.46655 4.2452617 256.46262 4.3242838 256.4598 C 4.403306 256.45697 4.4798327 256.45515 4.5532104 256.45515 C 4.6294104 256.45232 4.6970322 256.45101 4.7562988 256.45101 z M 8.9172851 256.90008 C 8.7479519 256.90008 8.6255488 256.9871 8.5493489 257.16208 C 8.4759712 257.33706 8.4392781 257.60675 8.4392781 257.97082 C 8.4392781 258.31513 8.4759712 258.58168 8.5493489 258.77077 C 8.6255488 258.95703 8.7497806 259.05034 8.921936 259.05034 C 9.088447 259.05034 9.2095381 258.96411 9.2857381 258.79195 C 9.3647602 258.6198 9.4045939 258.34617 9.4045939 257.97082 C 9.4045939 257.62933 9.3679008 257.3654 9.2945231 257.17913 C 9.2211453 256.99287 9.095085 256.90008 8.9172851 256.90008 z M 4.8028076 256.96778 C 4.7407188 256.96778 4.6770326 256.96909 4.6121216 256.97191 C 4.5500327 256.97473 4.5036396 256.97867 4.4725952 256.98431 L 4.4725952 258.96972 C 4.4838841 258.97254 4.5019722 258.97568 4.5273722 258.97851 C 4.5555944 258.97851 4.5852112 258.97982 4.6162557 258.98264 C 4.6473001 258.98264 4.6769169 258.98395 4.7051391 258.98677 L 4.7687011 258.98677 C 4.9323899 258.98677 5.0681503 258.95847 5.1753947 258.90202 C 5.2854612 258.84276 5.3711712 258.76544 5.4332601 258.66948 C 5.4981711 258.57353 5.5437691 258.46345 5.5691691 258.33927 C 5.5945691 258.21227 5.6068929 258.08227 5.6068929 257.94963 C 5.6068929 257.83392 5.5958809 257.71807 5.5733032 257.60236 C 5.5507254 257.48383 5.508268 257.3782 5.4461792 257.28507 C 5.3869125 257.19194 5.3051382 257.11593 5.2007161 257.05666 C 5.096294 256.99739 4.9636741 256.96778 4.8028076 256.96778 z " />
    <path
       id="path2-9-7"
       style="baseline-shift:baseline;display:inline;overflow:visible;fill:#000000;fill-opacity:1;stroke:none;stroke-width:0.529167;stroke-linejoin:round;stroke-dasharray:none;stroke-opacity:1;enable-background:accumulate;stop-color:#000000"
       d="M 19.84375 252.67708 A 1.3230489 1.3230489 0 0 0 18.697567 253.33699 L 16.978808 256.31355 L 15.26005 259.29011 A 1.3230489 1.3230489 0 0 0 15.26005 260.61458 A 1.3230489 1.3230489 0 0 0 16.406234 261.27449 L 19.84375 261.27449 L 23.281266 261.27449 A 1.3230489 1.3230489 0 0 0 24.427966 259.29011 L 22.709208 256.31355 L 20.99045 253.33699 A 1.3230489 1.3230489 0 0 0 19.84375 252.67708 z M 19.869071 256.44274 L 20.178096 256.44274 L 20.178096 258.99091 L 20.753772 258.99091 L 20.753772 259.45651 L 19.064986 259.45651 L 19.064986 258.99091 L 19.653064 258.99091 L 19.653064 257.31918 L 19.716626 257.03082 L 19.513537 257.28094 L 19.136816 257.5388 L 18.903756 257.22151 L 19.869071 256.44274 z " />
    <path
       id="path2-9-8"
       style="baseline-shift:baseline;display:inline;overflow:visible;fill:#000000;fill-opacity:1;stroke:none;stroke-width:0.529167;stroke-linejoin:round;stroke-dasharray:none;stroke-opacity:1;enable-background:accumulate;stop-color:#000000"
       d="M 33.072916 252.67708 A 1.3230489 1.3230489 0 0 0 31.926733 253.33699 L 30.207975 256.31355 L 28.489217 259.29011 A 1.3230489 1.3230489 0 0 0 28.489217 260.61458 A 1.3230489 1.3230489 0 0 0 29.6354 261.27449 L 33.072916 261.27449 L 36.510433 261.27449 A 1.3230489 1.3230489 0 0 0 37.657133 259.29011 L 35.938375 256.31355 L 34.219616 253.33699 A 1.3230489 1.3230489 0 0 0 33.072916 252.67708 z M 33.043461 256.43396 C 33.164816 256.43396 33.276207 256.45125 33.377807 256.48512 C 33.479407 256.51898 33.566946 256.568 33.640324 256.63291 C 33.713701 256.69782 33.771623 256.78011 33.813956 256.87889 C 33.85629 256.97485 33.877002 257.08755 33.877002 257.21737 C 33.877002 257.36131 33.850525 257.50677 33.796903 257.65352 C 33.746103 257.80028 33.679793 257.94391 33.597949 258.08502 C 33.518927 258.22613 33.430076 258.3632 33.331299 258.49585 C 33.235343 258.62567 33.140728 258.74545 33.047595 258.85552 L 32.823319 259.02915 L 32.823319 259.05034 L 33.12821 258.99091 L 33.940564 258.99091 L 33.940564 259.45651 L 32.15876 259.45651 L 32.15876 259.17333 C 32.226494 259.10277 32.302504 259.02048 32.38717 258.92735 C 32.471837 258.83139 32.556235 258.73153 32.640901 258.62711 C 32.72839 258.51986 32.813305 258.40978 32.89515 258.29689 C 32.976994 258.184 33.05038 258.0713 33.115291 257.95841 C 33.180202 257.8427 33.231048 257.73079 33.267737 257.62355 C 33.307248 257.51631 33.327165 257.41513 33.327165 257.31918 C 33.327165 257.20346 33.293095 257.10885 33.225362 257.03547 C 33.160451 256.95927 33.056136 256.92075 32.912203 256.92075 C 32.821892 256.92075 32.728589 256.94067 32.632633 256.98018 C 32.5395 257.01687 32.460349 257.06509 32.395438 257.12436 L 32.175297 256.73472 C 32.285363 256.6444 32.409595 256.57233 32.547884 256.51871 C 32.688995 256.46226 32.854372 256.43396 33.043461 256.43396 z " />
    <path
       id="path2-9-1"
       style="baseline-shift:baseline;display:inline;overflow:visible;fill:#000000;fill-opacity:1;stroke:none;stroke-width:0.529167;stroke-linejoin:round;stroke-dasharray:none;stroke-opacity:1;enable-background:accumulate;stop-color:#000000"
       d="M 46.302083 252.67708 A 1.3230489 1.3230489 0 0 0 45.1559 253.33699 L 43.437142 256.31355 L 41.718384 259.29011 A 1.3230489 1.3230489 0 0 0 41.718384 260.61458 A 1.3230489 1.3230489 0 0 0 42.864567 261.27449 L 46.302083 261.27449 L 49.739599 261.27449 A 1.3230489 1.3230489 0 0 0 50.886299 259.29011 L 49.167541 256.31355 L 47.448783 253.33699 A 1.3230489 1.3230489 0 0 0 46.302083 252.67708 z M 45.459757 256.49339 L 47.076713 256.49339 L 47.076713 256.79414 L 46.47985 257.59409 L 46.293815 257.7083 L 46.293815 257.72949 L 46.471582 257.70417 C 46.570359 257.71263 46.663146 257.73517 46.750634 257.77186 C 46.840946 257.80855 46.918784 257.86202 46.983695 257.93257 C 47.051428 258.00031 47.104898 258.08522 47.144409 258.18682 C 47.18392 258.28842 47.203837 258.40558 47.203837 258.53822 C 47.203837 258.70473 47.175532 258.84837 47.119087 258.96972 C 47.065465 259.09108 46.989455 259.19277 46.890678 259.27461 C 46.794722 259.35646 46.681502 259.417 46.55168 259.45651 C 46.421858 259.49602 46.282162 259.51594 46.132584 259.51594 C 46.008407 259.51594 45.880239 259.50493 45.747595 259.48235 C 45.614951 259.45977 45.507495 259.42702 45.425651 259.38468 L 45.573962 258.92735 C 45.64734 258.96404 45.727802 258.99417 45.815291 259.01675 C 45.905602 259.03932 46.005981 259.05034 46.116048 259.05034 C 46.291026 259.05034 46.423645 259.00394 46.513956 258.91081 C 46.60709 258.81768 46.653483 258.70446 46.653483 258.57181 C 46.653483 258.41095 46.605261 258.29248 46.509306 258.21628 C 46.41335 258.14008 46.262642 258.10207 46.05662 258.10207 L 45.751729 258.10207 L 45.751729 257.8101 L 46.263842 257.11144 L 46.505171 256.92075 L 46.170825 256.95899 L 45.459757 256.95899 L 45.459757 256.49339 z " />
    <path
       id="path2-9-9"
       style="baseline-shift:baseline;display:inline;overflow:visible;fill:#000000;fill-opacity:1;stroke:none;stroke-width:0.529167;stroke-linejoin:round;stroke-dasharray:none;stroke-opacity:1;enable-background:accumulate;stop-color:#000000"
       d="M 59.53125 252.67708 A 1.3230489 1.3230489 0 0 0 58.385066 253.33699 L 56.666308 256.31355 L 54.94755 259.29011 A 1.3230489 1.3230489 0 0 0 54.94755 260.61458 A 1.3230489 1.3230489 0 0 0 56.093733 261.27449 L 59.53125 261.27449 L 62.968766 261.27449 A 1.3230489 1.3230489 0 0 0 64.115466 259.29011 L 62.396708 256.31355 L 60.67795 253.33699 A 1.3230489 1.3230489 0 0 0 59.53125 252.67708 z M 59.747257 256.4722 L 60.199943 256.4722 L 60.199943 258.19096 L 60.665547 258.19096 L 60.665547 258.63124 L 60.199943 258.63124 L 60.199943 259.45703 L 59.687829 259.45703 L 59.687829 258.63124 L 58.40522 258.63124 L 58.40522 258.31808 L 59.747257 256.4722 z M 59.709017 257.18792 L 59.565356 257.49229 L 59.125073 258.06383 L 58.913199 258.22506 L 59.183984 258.19096 L 59.687829 258.19096 L 59.687829 257.54345 L 59.72607 257.18792 L 59.709017 257.18792 z " />
    <path
       id="path2-9-5"
       style="baseline-shift:baseline;display:inline;overflow:visible;fill:#000000;fill-opacity:1;stroke:none;stroke-width:0.529167;stroke-linejoin:round;stroke-dasharray:none;stroke-opacity:1;enable-background:accumulate;stop-color:#000000"
       d="M 72.760416 252.67708 A 1.3230489 1.3230489 0 0 0 71.614233 253.33699 L 69.895475 256.31355 L 68.176717 259.29011 A 1.3230489 1.3230489 0 0 0 68.176717 260.61458 A 1.3230489 1.3230489 0 0 0 69.3229 261.27449 L 72.760416 261.27449 L 76.197932 261.27449 A 1.3230489 1.3230489 0 0 0 77.344632 259.29011 L 75.625874 256.31355 L 73.907116 253.33699 A 1.3230489 1.3230489 0 0 0 72.760416 252.67708 z M 72.057617 256.49339 L 73.513859 256.49339 L 73.513859 257.00963 L 72.532006 257.00963 L 72.532006 257.58118 L 72.705639 257.56464 C 72.843928 257.57028 72.967643 257.59545 73.07771 257.6406 C 73.190598 257.68576 73.286525 257.74944 73.365547 257.83129 C 73.444569 257.91031 73.505632 258.00755 73.547965 258.12326 C 73.590298 258.23615 73.611527 258.36301 73.611527 258.50412 C 73.611527 258.67063 73.583222 258.8174 73.526778 258.9444 C 73.470333 259.0714 73.391183 259.17754 73.289583 259.26221 C 73.190805 259.34688 73.07365 259.41005 72.938183 259.45238 C 72.802717 259.49471 72.654632 259.51594 72.493766 259.51594 C 72.366766 259.51594 72.245158 259.50493 72.129447 259.48235 C 72.016558 259.4626 71.920631 259.43429 71.841609 259.3976 L 71.989921 258.94027 C 72.054832 258.96849 72.125594 258.99103 72.201794 259.00796 C 72.280816 259.02207 72.375431 259.02915 72.485498 259.02915 C 72.671764 259.02915 72.814084 258.98407 72.912862 258.89376 C 73.011639 258.80345 73.061173 258.67921 73.061173 258.52117 C 73.061173 258.35184 73.003251 258.2276 72.88754 258.14858 C 72.771829 258.06956 72.606452 258.03024 72.391963 258.03024 L 72.057617 258.04265 L 72.057617 256.49339 z " />
    <path
       id="path2-9-0"
       style="baseline-shift:baseline;display:inline;overflow:visible;fill:#000000;fill-opacity:1;stroke:none;stroke-width:0.529167;stroke-linejoin:round;stroke-dasharray:none;stroke-opacity:1;enable-background:accumulate;stop-color:#000000"
       d="M 85.989583 252.67708 A 1.3230489 1.3230489 0 0 0 84.8434 253.33699 L 83.124641 256.31355 L 81.405883 259.29011 A 1.3230489 1.3230489 0 0 0 81.405883 260.61458 A 1.3230489 1.3230489 0 0 0 82.552067 261.27449 L 85.989583 261.27449 L 89.427099 261.27449 A 1.3230489 1.3230489 0 0 0 90.573799 259.29011 L 88.855041 256.31355 L 87.136283 253.33699 A 1.3230489 1.3230489 0 0 0 85.989583 252.67708 z M 86.50583 256.43396 L 86.62882 256.87011 C 86.487709 256.89269 86.357713 256.93645 86.23918 257.00137 C 86.120647 257.06628 86.01502 257.14412 85.921887 257.23443 C 85.831576 257.32474 85.753737 257.42591 85.688826 257.5388 C 85.626737 257.64887 85.582968 257.7634 85.557568 257.88193 C 85.614012 257.81138 85.687398 257.75214 85.777709 257.70417 C 85.86802 257.65337 85.98124 257.6282 86.116707 257.6282 C 86.243707 257.6282 86.360862 257.6476 86.468107 257.68711 C 86.575351 257.72662 86.666825 257.78586 86.743025 257.86488 C 86.819225 257.94108 86.878459 258.03569 86.920792 258.14858 C 86.963125 258.26147 86.984354 258.39147 86.984354 258.53822 C 86.984354 258.67651 86.960502 258.80468 86.912524 258.92321 C 86.867368 259.04175 86.80237 259.14475 86.717704 259.23224 C 86.633037 259.31973 86.530034 259.38918 86.408679 259.43998 C 86.290145 259.49078 86.158837 259.51594 86.014904 259.51594 C 85.868149 259.51594 85.732905 259.4934 85.608727 259.44824 C 85.487372 259.40027 85.381228 259.3295 85.290917 259.23637 C 85.200606 259.14324 85.130361 259.0266 85.079561 258.88549 C 85.028761 258.74438 85.00308 258.58031 85.00308 258.39405 C 85.00308 258.11465 85.042913 257.86225 85.121935 257.63647 C 85.20378 257.41069 85.31203 257.21439 85.447497 257.04787 C 85.585786 256.87854 85.745399 256.7433 85.926021 256.6417 C 86.109465 256.53728 86.302631 256.46782 86.50583 256.43396 z M 85.985449 258.09381 C 85.87256 258.09381 85.776633 258.11897 85.697611 258.16977 C 85.621411 258.22057 85.567425 258.2798 85.53638 258.34754 C 85.530736 258.37858 85.528112 258.40557 85.528112 258.42815 L 85.528112 258.49585 C 85.528112 258.56358 85.537812 258.6312 85.557568 258.69894 C 85.577323 258.76385 85.605628 258.82308 85.642317 258.8767 C 85.681828 258.9275 85.731362 258.96996 85.790629 259.00383 C 85.849895 259.03487 85.920658 259.05034 86.002502 259.05034 C 86.135146 259.05034 86.242085 259.00525 86.323929 258.91494 C 86.408596 258.82463 86.451053 258.70879 86.451053 258.56768 C 86.451053 258.25159 86.295893 258.09381 85.985449 258.09381 z " />
    <path
       id="path2-9-6"
       style="baseline-shift:baseline;display:inline;overflow:visible;fill:#000000;fill-opacity:1;stroke:none;stroke-width:0.529167;stroke-linejoin:round;stroke-dasharray:none;stroke-opacity:1;enable-background:accumulate;stop-color:#000000"
       d="M 99.218749 252.67708 A 1.3230489 1.3230489 0 0 0 98.072566 253.33699 L 96.353808 256.31355 L 94.63505 259.29011 A 1.3230489 1.3230489 0 0 0 94.63505 260.61458 A 1.3230489 1.3230489 0 0 0 95.781233 261.27449 L 99.218749 261.27449 L 102.65627 261.27449 A 1.3230489 1.3230489 0 0 0 103.80297 259.29011 L 102.08421 256.31355 L 100.36545 253.33699 A 1.3230489 1.3230489 0 0 0 99.218749 252.67708 z M 98.380558 256.49339 L 100.29 256.49339 L 100.29 256.6541 L 99.104544 259.45651 L 98.566593 259.45651 L 99.536043 257.175 L 99.722595 256.96778 L 99.468347 257.00963 L 98.380558 257.00963 L 98.380558 256.49339 z " />
    <path
       id="path2-9-76"
       style="baseline-shift:baseline;display:inline;overflow:visible;fill:#000000;fill-opacity:1;stroke:none;stroke-width:0.529167;stroke-linejoin:round;stroke-dasharray:none;stroke-opacity:1;enable-background:accumulate;stop-color:#000000"
       d="M 112.44792 252.67708 A 1.3230489 1.3230489 0 0 0 111.30173 253.33699 L 109.58297 256.31355 L 107.86422 259.29011 A 1.3230489 1.3230489 0 0 0 107.86422 260.61458 A 1.3230489 1.3230489 0 0 0 109.0104 261.27449 L 112.44792 261.27449 L 115.88543 261.27449 A 1.3230489 1.3230489 0 0 0 117.03213 259.29011 L 115.31337 256.31355 L 113.59462 253.33699 A 1.3230489 1.3230489 0 0 0 112.44792 252.67708 z M 112.46497 256.43396 C 112.59197 256.43396 112.70781 256.45125 112.81223 256.48512 C 112.91666 256.51898 113.00551 256.56669 113.07889 256.62878 C 113.15509 256.69087 113.21249 256.76739 113.252 256.85771 C 113.29433 256.94519 113.31556 257.04243 113.31556 257.14968 C 113.31556 257.31619 113.27756 257.4572 113.20136 257.57291 C 113.12798 257.68862 113.01921 257.79424 112.87528 257.8902 C 113.04461 257.98898 113.17199 258.09775 113.25665 258.21628 C 113.34414 258.33481 113.38791 258.48735 113.38791 258.67361 C 113.38791 258.80061 113.36354 258.91646 113.31556 259.02088 C 113.27041 259.12248 113.20593 259.21002 113.12126 259.2834 C 113.03659 259.35677 112.9349 259.41418 112.81637 259.45651 C 112.69784 259.49602 112.56784 259.51594 112.42673 259.51594 C 112.28562 259.51594 112.15745 259.49602 112.04174 259.45651 C 111.92885 259.41982 111.83109 259.36767 111.74925 259.29993 C 111.67023 259.2322 111.60837 259.15043 111.56322 259.05447 C 111.52088 258.95851 111.49965 258.85158 111.49965 258.73304 C 111.49965 258.63427 111.51249 258.54673 111.53789 258.47053 C 111.56329 258.3915 111.59868 258.32074 111.64383 258.25865 C 111.69181 258.19374 111.74659 258.13582 111.80868 258.08502 C 111.87359 258.03422 111.94252 257.98783 112.0159 257.94549 C 111.87761 257.85801 111.76936 257.75763 111.69034 257.64474 C 111.61132 257.52903 111.57148 257.38671 111.57148 257.21737 C 111.57148 257.10731 111.5914 257.0043 111.63091 256.90835 C 111.67324 256.81239 111.73248 256.72931 111.80868 256.65875 C 111.8877 256.5882 111.98232 256.5329 112.09238 256.49339 C 112.20245 256.45388 112.32668 256.43396 112.46497 256.43396 z M 112.45618 256.90008 C 112.33201 256.90008 112.24053 256.93232 112.18127 256.99723 C 112.12482 257.06214 112.09652 257.13815 112.09652 257.22564 C 112.09652 257.29337 112.10936 257.35261 112.13476 257.40341 C 112.16016 257.45421 112.19371 257.49929 112.23604 257.5388 C 112.2812 257.57549 112.33073 257.61087 112.38435 257.64474 C 112.4408 257.67578 112.49872 257.7054 112.55799 257.73362 C 112.72732 257.58969 112.81223 257.4319 112.81223 257.25975 C 112.81223 257.14121 112.77685 257.05236 112.7063 256.9931 C 112.63856 256.93101 112.55496 256.90008 112.45618 256.90008 z M 112.34611 258.1274 C 112.21347 258.20359 112.12199 258.2872 112.07119 258.37751 C 112.02322 258.465 111.99936 258.55202 111.99936 258.63951 C 111.99936 258.7524 112.03737 258.85015 112.11357 258.932 C 112.19259 259.01102 112.30136 259.05034 112.43965 259.05034 C 112.56665 259.05034 112.66782 259.01941 112.74402 258.95732 C 112.82304 258.89523 112.86288 258.80193 112.86288 258.67775 C 112.86288 258.61284 112.84741 258.5536 112.81637 258.49998 C 112.78532 258.44636 112.74418 258.39865 112.69338 258.35632 C 112.6454 258.31117 112.59062 258.27002 112.52853 258.23333 C 112.46926 258.19664 112.4082 258.16126 112.34611 258.1274 z " />
    <path
       id="path2-9-74"
       style="baseline-shift:baseline;display:inline;overflow:visible;fill:#000000;fill-opacity:1;stroke:none;stroke-width:0.529167;stroke-linejoin:round;stroke-dasharray:none;stroke-opacity:1;enable-background:accumulate;stop-color:#000000"
       d="M 125.67708 252.67708 A 1.3230489 1.3230489 0 0 0 124.5309 253.33699 L 122.81214 256.31355 L 121.09338 259.29011 A 1.3230489 1.3230489 0 0 0 121.09338 260.61458 A 1.3230489 1.3230489 0 0 0 122.23957 261.27449 L 125.67708 261.27449 L 129.1146 261.27449 A 1.3230489 1.3230489 0 0 0 130.2613 259.29011 L 128.54254 256.31355 L 126.82378 253.33699 A 1.3230489 1.3230489 0 0 0 125.67708 252.67708 z M 125.63471 256.43396 C 125.95362 256.43396 126.20339 256.52989 126.38402 256.7218 C 126.56746 256.91088 126.65945 257.18765 126.65945 257.55172 C 126.65945 257.8791 126.61699 258.16294 126.53233 258.40283 C 126.45048 258.6399 126.33909 258.83883 126.19798 258.99969 C 126.05969 259.15774 125.89877 259.27883 125.71532 259.3635 C 125.53188 259.44816 125.3382 259.49901 125.135 259.51594 L 125.01666 259.08444 C 125.17188 259.06469 125.31026 259.02617 125.43162 258.96972 C 125.55297 258.91328 125.65729 258.84434 125.74478 258.7625 C 125.83227 258.67783 125.90303 258.58322 125.95665 258.47879 C 126.0131 258.37155 126.05241 258.25754 126.07499 258.13618 C 126.00726 258.20956 125.93387 258.25989 125.85485 258.28811 C 125.77865 258.31633 125.67565 258.33048 125.54582 258.33048 C 125.43858 258.33048 125.33112 258.3124 125.22388 258.27571 C 125.11946 258.23902 125.02536 258.18372 124.94069 258.11034 C 124.85885 258.03414 124.79071 257.94004 124.73709 257.82715 C 124.68629 257.71144 124.66112 257.57568 124.66112 257.42046 C 124.66112 257.27653 124.68235 257.14391 124.72469 257.02255 C 124.76984 256.9012 124.83301 256.79819 124.91486 256.71353 C 124.99952 256.62604 125.10121 256.55842 125.21975 256.51044 C 125.3411 256.45964 125.47949 256.43396 125.63471 256.43396 z M 125.63057 256.88716 C 125.49228 256.88716 125.38483 256.93224 125.30863 257.02255 C 125.23243 257.11004 125.19442 257.23296 125.19442 257.39101 C 125.19442 257.55187 125.23951 257.67296 125.32982 257.75481 C 125.42013 257.83665 125.53335 257.8778 125.66881 257.8778 C 125.78453 257.8778 125.87862 257.85919 125.952 257.8225 C 126.02538 257.78582 126.08199 257.74073 126.1215 257.68711 C 126.12997 257.62785 126.13442 257.57175 126.13442 257.51813 C 126.13442 257.43911 126.1242 257.36127 126.10445 257.28507 C 126.08469 257.20887 126.05376 257.14125 126.01143 257.08198 C 125.97192 257.02271 125.91976 256.9758 125.85485 256.94194 C 125.79276 256.90525 125.71806 256.88716 125.63057 256.88716 z " />
    <path
       id="path2-9-744"
       style="baseline-shift:baseline;display:inline;overflow:visible;fill:#000000;fill-opacity:1;stroke:none;stroke-width:0.529167;stroke-linejoin:round;stroke-dasharray:none;stroke-opacity:1;enable-background:accumulate;stop-color:#000000"
       d="M 138.90625 252.67708 A 1.3230489 1.3230489 0 0 0 137.76007 253.33699 L 136.04131 256.31355 L 134.32255 259.29011 A 1.3230489 1.3230489 0 0 0 134.32255 260.61458 A 1.3230489 1.3230489 0 0 0 135.46873 261.27449 L 138.90625 261.27449 L 142.34377 261.27449 A 1.3230489 1.3230489 0 0 0 143.49047 259.29011 L 141.77171 256.31355 L 140.05295 253.33699 A 1.3230489 1.3230489 0 0 0 138.90625 252.67708 z M 139.83746 256.43396 C 140.19306 256.43396 140.45436 256.5595 140.62087 256.81068 C 140.78738 257.05903 140.87047 257.44588 140.87047 257.97082 C 140.87047 258.49293 140.78031 258.88109 140.59969 259.13509 C 140.42189 259.38909 140.16635 259.51594 139.83332 259.51594 C 139.48055 259.51594 139.22107 259.38332 139.05456 259.11803 C 138.88805 258.84992 138.80445 258.46753 138.80445 257.97082 C 138.80445 257.45153 138.8933 257.06651 139.0711 256.81533 C 139.2489 256.56133 139.50444 256.43396 139.83746 256.43396 z M 137.99623 256.44274 L 138.30525 256.44274 L 138.30525 258.99091 L 138.88093 258.99091 L 138.88093 259.45651 L 137.19163 259.45651 L 137.19163 258.99091 L 137.78022 258.99091 L 137.78022 257.31918 L 137.84378 257.03082 L 137.64069 257.28094 L 137.26397 257.5388 L 137.03091 257.22151 L 137.99623 256.44274 z M 139.83332 256.90008 C 139.66399 256.90008 139.54107 256.9871 139.46487 257.16208 C 139.39149 257.33706 139.3548 257.60675 139.3548 257.97082 C 139.3548 258.31513 139.39149 258.58168 139.46487 258.77077 C 139.54107 258.95703 139.6653 259.05034 139.83746 259.05034 C 140.00397 259.05034 140.12558 258.96411 140.20178 258.79195 C 140.2808 258.6198 140.32012 258.34617 140.32012 257.97082 C 140.32012 257.62933 140.28342 257.3654 140.21005 257.17913 C 140.13667 256.99287 140.01112 256.90008 139.83332 256.90008 z " />
    <path
       id="path2-9-68"
       style="baseline-shift:baseline;display:inline;overflow:visible;fill:#000000;fill-opacity:1;stroke:none;stroke-width:0.529167;stroke-linejoin:round;stroke-dasharray:none;stroke-opacity:1;enable-background:accumulate;stop-color:#000000"
       d="M 152.13542 252.67708 A 1.3230489 1.3230489 0 0 0 150.98923 253.33699 L 149.27047 256.31355 L 147.55172 259.29011 A 1.3230489 1.3230489 0 0 0 147.55172 260.61458 A 1.3230489 1.3230489 0 0 0 148.6979 261.27449 L 152.13542 261.27449 L 155.57293 261.27449 A 1.3230489 1.3230489 0 0 0 156.71963 259.29011 L 155.00087 256.31355 L 153.28212 253.33699 A 1.3230489 1.3230489 0 0 0 152.13542 252.67708 z M 151.22539 256.44274 L 151.53442 256.44274 L 151.53442 258.99091 L 152.11009 258.99091 L 152.11009 259.45703 L 150.42079 259.45703 L 150.42079 258.99091 L 151.00939 258.99091 L 151.00939 257.31918 L 151.07295 257.03134 L 150.86986 257.28094 L 150.49314 257.53932 L 150.26008 257.22151 L 151.22539 256.44274 z M 153.0966 256.44274 L 153.40562 256.44274 L 153.40562 258.99091 L 153.9813 258.99091 L 153.9813 259.45703 L 152.292 259.45703 L 152.292 258.99091 L 152.88059 258.99091 L 152.88059 257.31918 L 152.94415 257.03134 L 152.74055 257.28094 L 152.36383 257.53932 L 152.13128 257.22151 L 153.0966 256.44274 z " />
    <path
       id="path2-9-4"
       style="baseline-shift:baseline;display:inline;overflow:visible;fill:#000000;fill-opacity:1;stroke:none;stroke-width:0.529167;stroke-linejoin:round;stroke-dasharray:none;stroke-opacity:1;enable-background:accumulate;stop-color:#000000"
       d="M 165.36458 252.67708 A 1.3230489 1.3230489 0 0 0 164.2184 253.33699 L 162.49964 256.31355 L 160.78088 259.29011 A 1.3230489 1.3230489 0 0 0 160.78088 260.61458 A 1.3230489 1.3230489 0 0 0 161.92707 261.27449 L 165.36458 261.27449 L 168.8021 261.27449 A 1.3230489 1.3230489 0 0 0 169.9488 259.29011 L 168.23004 256.31355 L 166.51128 253.33699 A 1.3230489 1.3230489 0 0 0 165.36458 252.67708 z M 166.27047 256.43396 C 166.39183 256.43396 166.50322 256.45125 166.60482 256.48512 C 166.70642 256.51898 166.79396 256.568 166.86733 256.63291 C 166.94071 256.69782 166.99863 256.78011 167.04097 256.87889 C 167.0833 256.97485 167.10453 257.08755 167.10453 257.21737 C 167.10453 257.36131 167.07753 257.50677 167.02391 257.65352 C 166.97311 257.80028 166.9068 257.94391 166.82496 258.08502 C 166.74594 258.22613 166.65709 258.3632 166.55831 258.49585 C 166.46235 258.62567 166.36774 258.74545 166.2746 258.85552 L 166.05033 259.02915 L 166.05033 259.05034 L 166.35522 258.99091 L 167.16809 258.99091 L 167.16809 259.45703 L 165.38577 259.45703 L 165.38577 259.17333 C 165.4535 259.10277 165.52951 259.021 165.61418 258.92786 C 165.69885 258.83191 165.78376 258.73153 165.86843 258.62711 C 165.95592 258.51986 166.04031 258.40978 166.12216 258.29689 C 166.204 258.184 166.27739 258.0713 166.3423 257.95841 C 166.40721 257.8427 166.45806 257.73079 166.49475 257.62355 C 166.53426 257.51631 166.55417 257.41513 166.55417 257.31918 C 166.55417 257.20346 166.5201 257.10885 166.45237 257.03547 C 166.38746 256.95927 166.28315 256.92127 166.13921 256.92127 C 166.0489 256.92127 165.9556 256.94067 165.85964 256.98018 C 165.76651 257.01687 165.68788 257.06509 165.62296 257.12436 L 165.40282 256.73472 C 165.51289 256.6444 165.63712 256.57233 165.77541 256.51871 C 165.91652 256.46226 166.08138 256.43396 166.27047 256.43396 z M 164.45456 256.44274 L 164.76359 256.44274 L 164.76359 258.99091 L 165.33926 258.99091 L 165.33926 259.45703 L 163.64996 259.45703 L 163.64996 258.99091 L 164.23855 258.99091 L 164.23855 257.31918 L 164.30211 257.03134 L 164.09903 257.28094 L 163.72231 257.53932 L 163.48924 257.22151 L 164.45456 256.44274 z " />
    <path
       id="path2-9-89"
       style="baseline-shift:baseline;display:inline;overflow:visible;fill:#000000;fill-opacity:1;stroke:none;stroke-width:0.529167;stroke-linejoin:round;stroke-dasharray:none;stroke-opacity:1;enable-background:accumulate;stop-color:#000000"
       d="M 178.59375 252.67708 A 1.3230489 1.3230489 0 0 0 177.44757 253.33699 L 175.72881 256.31355 L 174.01005 259.29011 A 1.3230489 1.3230489 0 0 0 174.01005 260.61458 A 1.3230489 1.3230489 0 0 0 175.15623 261.27449 L 178.59375 261.27449 L 182.03127 261.27449 A 1.3230489 1.3230489 0 0 0 183.17797 259.29011 L 181.45921 256.31355 L 179.74045 253.33699 A 1.3230489 1.3230489 0 0 0 178.59375 252.67708 z M 177.68373 256.44274 L 177.99275 256.44274 L 177.99275 258.99091 L 178.56843 258.99091 L 178.56843 259.45703 L 176.87912 259.45703 L 176.87912 258.99091 L 177.46772 258.99091 L 177.46772 257.31918 L 177.53128 257.03134 L 177.32819 257.28094 L 176.95147 257.53932 L 176.71841 257.22151 L 177.68373 256.44274 z M 178.68677 256.49339 L 180.30424 256.49339 L 180.30424 256.79414 L 179.70738 257.59409 L 179.52082 257.7083 L 179.52082 257.72949 L 179.69859 257.70417 C 179.79737 257.71263 179.89067 257.73517 179.97816 257.77186 C 180.06847 257.80855 180.14579 257.86202 180.2107 257.93257 C 180.27844 258.00031 180.33242 258.08522 180.37193 258.18682 C 180.41145 258.28842 180.43085 258.40558 180.43085 258.53822 C 180.43085 258.70473 180.40306 258.84837 180.34661 258.96972 C 180.29299 259.09108 180.21646 259.19277 180.11769 259.27461 C 180.02173 259.35646 179.90903 259.41752 179.77921 259.45703 C 179.64938 259.49654 179.50969 259.51594 179.36011 259.51594 C 179.23593 259.51594 179.10725 259.50493 178.9746 259.48235 C 178.84196 259.45977 178.73502 259.42702 178.65318 259.38468 L 178.80097 258.92786 C 178.87435 258.96455 178.95481 258.99417 179.0423 259.01675 C 179.13261 259.03932 179.23299 259.05034 179.34306 259.05034 C 179.51803 259.05034 179.65065 259.00394 179.74097 258.91081 C 179.8341 258.81768 179.88049 258.70446 179.88049 258.57181 C 179.88049 258.41095 179.83279 258.29248 179.73683 258.21628 C 179.64088 258.14008 179.48965 258.10207 179.28363 258.10207 L 178.97926 258.10207 L 178.97926 257.8101 L 179.49137 257.11144 L 179.7327 256.92127 L 179.39835 256.95899 L 178.68677 256.95899 L 178.68677 256.49339 z " />
    <path
       id="path2-9-95"
       style="baseline-shift:baseline;display:inline;overflow:visible;fill:#000000;fill-opacity:1;stroke:none;stroke-width:0.529167;stroke-linejoin:round;stroke-dasharray:none;stroke-opacity:1;enable-background:accumulate;stop-color:#000000"
       d="M 191.82292 252.67708 A 1.3230489 1.3230489 0 0 0 190.67673 253.33699 L 188.95797 256.31355 L 187.23922 259.29011 A 1.3230489 1.3230489 0 0 0 187.23922 260.61458 A 1.3230489 1.3230489 0 0 0 188.3854 261.27449 L 191.82292 261.27449 L 195.26043 261.27449 A 1.3230489 1.3230489 0 0 0 196.40713 259.29011 L 194.68837 256.31355 L 192.96962 253.33699 A 1.3230489 1.3230489 0 0 0 191.82292 252.67708 z M 190.91289 256.44274 L 191.22192 256.44274 L 191.22192 258.99091 L 191.79759 258.99091 L 191.79759 259.45703 L 190.10829 259.45703 L 190.10829 258.99091 L 190.69689 258.99091 L 190.69689 257.31918 L 190.76045 257.03134 L 190.55736 257.28094 L 190.18064 257.53932 L 189.94758 257.22151 L 190.91289 256.44274 z M 192.97427 256.4722 L 193.42747 256.4722 L 193.42747 258.19096 L 193.89307 258.19096 L 193.89307 258.63124 L 193.42747 258.63124 L 193.42747 259.45703 L 192.91536 259.45703 L 192.91536 258.63124 L 191.63223 258.63124 L 191.63223 258.31808 L 192.97427 256.4722 z M 192.93654 257.18792 L 192.79237 257.49229 L 192.35208 258.06383 L 192.14021 258.22506 L 192.41151 258.19096 L 192.91536 258.19096 L 192.91536 257.54345 L 192.95308 257.18792 L 192.93654 257.18792 z " />
    <path
       id="path2-9-17"
       style="baseline-shift:baseline;display:inline;overflow:visible;fill:#000000;fill-opacity:1;stroke:none;stroke-width:0.529167;stroke-linejoin:round;stroke-dasharray:none;stroke-opacity:1;enable-background:accumulate;stop-color:#000000"
       d="M 205.05208 252.67708 A 1.3230489 1.3230489 0 0 0 203.9059 253.33699 L 202.18714 256.31355 L 200.46838 259.29011 A 1.3230489 1.3230489 0 0 0 200.46838 260.61458 A 1.3230489 1.3230489 0 0 0 201.61457 261.27449 L 205.05208 261.27449 L 208.4896 261.27449 A 1.3230489 1.3230489 0 0 0 209.6363 259.29011 L 207.91754 256.31355 L 206.19878 253.33699 A 1.3230489 1.3230489 0 0 0 205.05208 252.67708 z M 204.14206 256.44274 L 204.45109 256.44274 L 204.45109 258.99091 L 205.02676 258.99091 L 205.02676 259.45703 L 203.33746 259.45703 L 203.33746 258.99091 L 203.92605 258.99091 L 203.92605 257.31918 L 203.98961 257.03134 L 203.78653 257.28094 L 203.40981 257.53932 L 203.17674 257.22151 L 204.14206 256.44274 z M 205.28514 256.49339 L 206.74138 256.49339 L 206.74138 257.01015 L 205.75902 257.01015 L 205.75902 257.58118 L 205.93265 257.56464 C 206.07094 257.57028 206.19517 257.59545 206.30524 257.6406 C 206.41812 257.68576 206.51405 257.74944 206.59307 257.83129 C 206.6721 257.91031 206.73264 258.00755 206.77497 258.12326 C 206.81731 258.23615 206.83854 258.36301 206.83854 258.50412 C 206.83854 258.67063 206.81023 258.8174 206.75379 258.9444 C 206.69734 259.0714 206.61819 259.17754 206.51659 259.26221 C 206.41781 259.34688 206.30118 259.41005 206.16571 259.45238 C 206.03024 259.49471 205.88164 259.51594 205.72078 259.51594 C 205.59378 259.51594 205.47268 259.50493 205.35697 259.48235 C 205.24408 259.4626 205.14816 259.43429 205.06914 259.3976 L 205.21745 258.94027 C 205.28236 258.96849 205.3526 258.99103 205.4288 259.00796 C 205.50783 259.02207 205.60244 259.02915 205.71251 259.02915 C 205.89877 259.02915 206.04109 258.98407 206.13987 258.89376 C 206.23865 258.80345 206.28818 258.67921 206.28818 258.52117 C 206.28818 258.35184 206.23026 258.2276 206.11455 258.14858 C 205.99884 258.06956 205.83398 258.03024 205.61949 258.03024 L 205.28514 258.04265 L 205.28514 256.49339 z " />
    <path
       id="path2-9-61"
       style="baseline-shift:baseline;display:inline;overflow:visible;fill:#000000;fill-opacity:1;stroke:none;stroke-width:0.529167;stroke-linejoin:round;stroke-dasharray:none;stroke-opacity:1;enable-background:accumulate;stop-color:#000000"
       d="M 218.28125 252.67708 A 1.3230489 1.3230489 0 0 0 217.13507 253.33699 L 215.41631 256.31355 L 213.69755 259.29011 A 1.3230489 1.3230489 0 0 0 213.69755 260.61458 A 1.3230489 1.3230489 0 0 0 214.84373 261.27449 L 218.28125 261.27449 L 221.71876 261.27449 A 1.3230489 1.3230489 0 0 0 222.86546 259.29011 L 221.14671 256.31355 L 219.42795 253.33699 A 1.3230489 1.3230489 0 0 0 218.28125 252.67708 z M 219.73336 256.43396 L 219.85583 256.87011 C 219.71472 256.89269 219.58524 256.93645 219.46671 257.00137 C 219.34817 257.06628 219.24203 257.14412 219.1489 257.23443 C 219.05858 257.32474 218.98126 257.42643 218.91635 257.53932 C 218.85426 257.64938 218.81049 257.7634 218.78509 257.88193 C 218.84154 257.81138 218.91492 257.75214 219.00524 257.70417 C 219.09555 257.65337 219.20825 257.6282 219.34372 257.6282 C 219.47072 257.6282 219.58787 257.6476 219.69512 257.68711 C 219.80236 257.72662 219.89435 257.78586 219.97055 257.86488 C 220.04675 257.94108 220.10598 258.03569 220.14832 258.14858 C 220.19065 258.26147 220.21188 258.39147 220.21188 258.53822 C 220.21188 258.67651 220.18751 258.80468 220.13953 258.92321 C 220.09438 259.04175 220.02938 259.14475 219.94471 259.23224 C 219.86005 259.31973 219.75704 259.38918 219.63569 259.43998 C 219.51715 259.49078 219.38636 259.51594 219.24243 259.51594 C 219.09567 259.51594 218.95991 259.4934 218.83574 259.44824 C 218.71438 259.40027 218.60875 259.33002 218.51844 259.23689 C 218.42813 259.14375 218.35737 259.0266 218.30657 258.88549 C 218.25577 258.74438 218.23061 258.58031 218.23061 258.39405 C 218.23061 258.11465 218.26992 257.86225 218.34894 257.63647 C 218.43079 257.41069 218.53956 257.21439 218.67502 257.04787 C 218.81331 256.87854 218.97292 256.7433 219.15355 256.6417 C 219.33699 256.53728 219.53016 256.46782 219.73336 256.43396 z M 217.37123 256.44274 L 217.68025 256.44274 L 217.68025 258.99091 L 218.25593 258.99091 L 218.25593 259.45703 L 216.56662 259.45703 L 216.56662 258.99091 L 217.15522 258.99091 L 217.15522 257.31918 L 217.21878 257.03134 L 217.01569 257.28094 L 216.63897 257.53932 L 216.40591 257.22151 L 217.37123 256.44274 z M 219.21246 258.09381 C 219.09957 258.09381 219.00364 258.11897 218.92462 258.16977 C 218.84842 258.22057 218.79495 258.2798 218.76391 258.34754 C 218.75826 258.37858 218.75564 258.40557 218.75564 258.42815 L 218.75564 258.49585 C 218.75564 258.56358 218.76534 258.6312 218.78509 258.69894 C 218.80485 258.76385 218.83315 258.82308 218.86984 258.8767 C 218.90935 258.9275 218.95837 258.96996 219.01764 259.00383 C 219.0769 259.03487 219.14767 259.05034 219.22951 259.05034 C 219.36216 259.05034 219.46961 259.00525 219.55146 258.91494 C 219.63612 258.82463 219.67806 258.70879 219.67806 258.56768 C 219.67806 258.25159 219.5229 258.09381 219.21246 258.09381 z " />
    <path
       id="path2-9-94"
       style="baseline-shift:baseline;display:inline;overflow:visible;fill:#000000;fill-opacity:1;stroke:none;stroke-width:0.529167;stroke-linejoin:round;stroke-dasharray:none;stroke-opacity:1;enable-background:accumulate;stop-color:#000000"
       d="M 231.51042 252.67708 A 1.3230489 1.3230489 0 0 0 230.36423 253.33699 L 228.64547 256.31355 L 226.92672 259.29011 A 1.3230489 1.3230489 0 0 0 226.92672 260.61458 A 1.3230489 1.3230489 0 0 0 228.0729 261.27449 L 231.51042 261.27449 L 234.94793 261.27449 A 1.3230489 1.3230489 0 0 0 236.09463 259.29011 L 234.37587 256.31355 L 232.65712 253.33699 A 1.3230489 1.3230489 0 0 0 231.51042 252.67708 z M 230.7146 256.44274 L 231.02362 256.44274 L 231.02362 258.99091 L 231.5993 258.99091 L 231.5993 259.45703 L 229.91 259.45703 L 229.91 258.99091 L 230.49859 258.99091 L 230.49859 257.31918 L 230.56215 257.03134 L 230.35906 257.28094 L 229.98234 257.53932 L 229.74928 257.22151 L 230.7146 256.44274 z M 231.60757 256.49339 L 233.51701 256.49339 L 233.51701 256.6541 L 232.33155 259.45703 L 231.79412 259.45703 L 232.76357 257.175 L 232.9496 256.96778 L 232.69587 257.01015 L 231.60757 257.01015 L 231.60757 256.49339 z " />
    <path
       id="path2-9-77"
       style="baseline-shift:baseline;display:inline;overflow:visible;fill:#000000;fill-opacity:1;stroke:none;stroke-width:0.529167;stroke-linejoin:round;stroke-dasharray:none;stroke-opacity:1;enable-background:accumulate;stop-color:#000000"
       d="M 244.73958 252.67708 A 1.3230489 1.3230489 0 0 0 243.5934 253.33699 L 241.87464 256.31355 L 240.15588 259.29011 A 1.3230489 1.3230489 0 0 0 240.15588 260.61458 A 1.3230489 1.3230489 0 0 0 241.30207 261.27449 L 244.73958 261.27449 L 248.1771 261.27449 A 1.3230489 1.3230489 0 0 0 249.3238 259.29011 L 247.60504 256.31355 L 245.88628 253.33699 A 1.3230489 1.3230489 0 0 0 244.73958 252.67708 z M 245.69198 256.43396 C 245.81898 256.43396 245.93482 256.45125 246.03924 256.48512 C 246.14367 256.51898 246.23252 256.56669 246.30589 256.62878 C 246.38209 256.69087 246.44002 256.76739 246.47953 256.85771 C 246.52186 256.94519 246.54309 257.04243 246.54309 257.14968 C 246.54309 257.31619 246.50508 257.4572 246.42888 257.57291 C 246.35551 257.68862 246.24674 257.79424 246.10281 257.8902 C 246.27214 257.98898 246.39899 258.09775 246.48366 258.21628 C 246.57115 258.33481 246.61492 258.48735 246.61492 258.67361 C 246.61492 258.80061 246.59107 258.91646 246.54309 259.02088 C 246.49793 259.12248 246.43294 259.21002 246.34827 259.2834 C 246.2636 259.35677 246.16191 259.41418 246.04338 259.45651 C 245.92484 259.49602 245.79485 259.51594 245.65374 259.51594 C 245.51263 259.51594 245.38446 259.49602 245.26875 259.45651 C 245.15586 259.41982 245.05862 259.36767 244.97678 259.29993 C 244.89775 259.2322 244.83538 259.15043 244.79022 259.05447 C 244.74789 258.95851 244.72666 258.85158 244.72666 258.73304 C 244.72666 258.63427 244.7395 258.54673 244.7649 258.47053 C 244.7903 258.3915 244.82568 258.32074 244.87084 258.25865 C 244.91882 258.19374 244.9736 258.13582 245.03569 258.08502 C 245.1006 258.03422 245.17005 257.98783 245.24343 257.94549 C 245.10514 257.85801 244.99637 257.75763 244.91735 257.64474 C 244.83833 257.52903 244.79901 257.38671 244.79901 257.21737 C 244.79901 257.10731 244.81841 257.0043 244.85792 256.90835 C 244.90025 256.81239 244.95949 256.72931 245.03569 256.65875 C 245.11471 256.5882 245.20932 256.5329 245.31939 256.49339 C 245.42946 256.45388 245.55369 256.43396 245.69198 256.43396 z M 243.82956 256.44274 L 244.13858 256.44274 L 244.13858 258.99091 L 244.71426 258.99091 L 244.71426 259.45651 L 243.02496 259.45651 L 243.02496 258.99091 L 243.61355 258.99091 L 243.61355 257.31918 L 243.67711 257.03082 L 243.47403 257.28094 L 243.0973 257.5388 L 242.86424 257.22151 L 243.82956 256.44274 z M 245.68371 256.90008 C 245.55953 256.90008 245.46754 256.93232 245.40827 256.99723 C 245.35183 257.06214 245.32404 257.13815 245.32404 257.22564 C 245.32404 257.29337 245.33637 257.35261 245.36177 257.40341 C 245.38717 257.45421 245.42124 257.49929 245.46357 257.5388 C 245.50872 257.57549 245.55826 257.61087 245.61188 257.64474 C 245.66832 257.67578 245.72573 257.7054 245.785 257.73362 C 245.95433 257.58969 246.03924 257.4319 246.03924 257.25975 C 246.03924 257.14121 246.00386 257.05236 245.93331 256.9931 C 245.86557 256.93101 245.78249 256.90008 245.68371 256.90008 z M 245.57364 258.1274 C 245.441 258.20359 245.349 258.2872 245.2982 258.37751 C 245.25023 258.465 245.22637 258.55202 245.22637 258.63951 C 245.22637 258.7524 245.26438 258.85015 245.34058 258.932 C 245.4196 259.01102 245.52837 259.05034 245.66666 259.05034 C 245.79366 259.05034 245.89535 259.01941 245.97155 258.95732 C 246.05057 258.89523 246.08989 258.80193 246.08989 258.67775 C 246.08989 258.61284 246.07442 258.5536 246.04338 258.49998 C 246.01233 258.44636 245.9717 258.39865 245.92091 258.35632 C 245.87293 258.31117 245.81763 258.27002 245.75554 258.23333 C 245.69627 258.19664 245.63573 258.16126 245.57364 258.1274 z " />
    <path
       id="path2-9-776"
       style="baseline-shift:baseline;display:inline;overflow:visible;fill:#000000;fill-opacity:1;stroke:none;stroke-width:0.529167;stroke-linejoin:round;stroke-dasharray:none;stroke-opacity:1;enable-background:accumulate;stop-color:#000000"
       d="M 257.96875 252.67708 A 1.3230489 1.3230489 0 0 0 256.82257 253.33699 L 255.10381 256.31355 L 253.38505 259.29011 A 1.3230489 1.3230489 0 0 0 253.38505 260.61458 A 1.3230489 1.3230489 0 0 0 254.53123 261.27449 L 257.96875 261.27449 L 261.40626 261.27449 A 1.3230489 1.3230489 0 0 0 262.55296 259.29011 L 260.83421 256.31355 L 259.11545 253.33699 A 1.3230489 1.3230489 0 0 0 257.96875 252.67708 z M 258.86223 256.43396 C 259.18114 256.43396 259.43092 256.52989 259.61154 256.7218 C 259.79499 256.91088 259.88646 257.18765 259.88646 257.55172 C 259.88646 257.8791 259.844 258.16294 259.75934 258.40283 C 259.67749 258.6399 259.5661 258.83883 259.42499 258.99969 C 259.2867 259.15774 259.12578 259.27883 258.94233 259.3635 C 258.75889 259.44816 258.56572 259.49901 258.36252 259.51594 L 258.24367 259.08444 C 258.39889 259.06469 258.53727 259.02617 258.65863 258.96972 C 258.77998 258.91328 258.88482 258.84434 258.9723 258.7625 C 259.05979 258.67783 259.13004 258.58322 259.18366 258.47879 C 259.24011 258.37155 259.27942 258.25754 259.302 258.13618 C 259.23427 258.20956 259.1614 258.25989 259.08238 258.28811 C 259.00618 258.31633 258.90266 258.33048 258.77283 258.33048 C 258.66559 258.33048 258.55865 258.3124 258.45141 258.27571 C 258.34698 258.23902 258.25237 258.18372 258.1677 258.11034 C 258.08586 258.03414 258.01824 257.94004 257.96461 257.82715 C 257.91381 257.71144 257.88813 257.57568 257.88813 257.42046 C 257.88813 257.27653 257.90936 257.14391 257.9517 257.02255 C 257.99685 256.9012 258.06054 256.79819 258.14238 256.71353 C 258.22705 256.62604 258.32874 256.55842 258.44727 256.51044 C 258.56863 256.45964 258.70701 256.43396 258.86223 256.43396 z M 257.05873 256.44274 L 257.36775 256.44274 L 257.36775 258.99091 L 257.94343 258.99091 L 257.94343 259.45651 L 256.25412 259.45651 L 256.25412 258.99091 L 256.84272 258.99091 L 256.84272 257.31918 L 256.90628 257.03082 L 256.70319 257.28094 L 256.32647 257.5388 L 256.09341 257.22151 L 257.05873 256.44274 z M 258.85758 256.88716 C 258.71929 256.88716 258.61236 256.93224 258.53616 257.02255 C 258.45996 257.11004 258.42195 257.23296 258.42195 257.39101 C 258.42195 257.55187 258.46703 257.67296 258.55734 257.75481 C 258.64765 257.83665 258.76036 257.8778 258.89582 257.8778 C 259.01153 257.8778 259.10615 257.85919 259.17953 257.8225 C 259.2529 257.78582 259.30951 257.74073 259.34903 257.68711 C 259.35749 257.62785 259.36143 257.57175 259.36143 257.51813 C 259.36143 257.43911 259.35173 257.36127 259.33197 257.28507 C 259.31222 257.20887 259.28129 257.14125 259.23896 257.08198 C 259.19944 257.02271 259.14729 256.9758 259.08238 256.94194 C 259.02029 256.90525 258.94507 256.88716 258.85758 256.88716 z " />
    <path
       id="path2-9-63"
       style="baseline-shift:baseline;display:inline;overflow:visible;fill:#000000;fill-opacity:1;stroke:none;stroke-width:0.529167;stroke-linejoin:round;stroke-dasharray:none;stroke-opacity:1;enable-background:accumulate;stop-color:#000000"
       d="M 271.19791 252.67708 A 1.3230489 1.3230489 0 0 0 270.05173 253.33699 L 268.33297 256.31355 L 266.61422 259.29011 A 1.3230489 1.3230489 0 0 0 266.61422 260.61458 A 1.3230489 1.3230489 0 0 0 267.7604 261.27449 L 271.19791 261.27449 L 274.63543 261.27449 A 1.3230489 1.3230489 0 0 0 275.78213 259.29011 L 274.06337 256.31355 L 272.34461 253.33699 A 1.3230489 1.3230489 0 0 0 271.19791 252.67708 z M 270.2326 256.43396 C 270.35395 256.43396 270.46535 256.45125 270.56695 256.48512 C 270.66855 256.51898 270.75608 256.568 270.82946 256.63291 C 270.90284 256.69782 270.96076 256.78011 271.00309 256.87889 C 271.04543 256.97485 271.06666 257.08755 271.06666 257.21737 C 271.06666 257.36131 271.03966 257.50677 270.98604 257.65352 C 270.93524 257.80028 270.86893 257.94391 270.78709 258.08502 C 270.70807 258.22613 270.61921 258.3632 270.52044 258.49585 C 270.42448 258.62567 270.32987 258.74545 270.23673 258.85552 L 270.01246 259.02915 L 270.01246 259.05034 L 270.31735 258.99091 L 271.13022 258.99091 L 271.13022 259.45703 L 269.3479 259.45703 L 269.3479 259.17333 C 269.41563 259.10277 269.49216 259.021 269.57683 258.92786 C 269.66149 258.83191 269.74589 258.73153 269.83056 258.62711 C 269.91805 258.51986 270.00296 258.40978 270.0848 258.29689 C 270.16665 258.184 270.24004 258.0713 270.30495 257.95841 C 270.36986 257.8427 270.42019 257.73079 270.45687 257.62355 C 270.49639 257.51631 270.5163 257.41513 270.5163 257.31918 C 270.5163 257.20346 270.48275 257.10885 270.41502 257.03547 C 270.35011 256.95927 270.24527 256.92127 270.10134 256.92127 C 270.01103 256.92127 269.91824 256.94067 269.82229 256.98018 C 269.72916 257.01687 269.65 257.06509 269.58509 257.12436 L 269.36495 256.73472 C 269.47502 256.6444 269.59925 256.57233 269.73754 256.51871 C 269.87865 256.46226 270.04351 256.43396 270.2326 256.43396 z M 272.12912 256.43396 C 272.48472 256.43396 272.74603 256.56002 272.91254 256.8112 C 273.07905 257.05955 273.16214 257.44588 273.16214 257.97082 C 273.16214 258.49293 273.07197 258.88109 272.89135 259.13509 C 272.71355 259.38909 272.45801 259.51594 272.12499 259.51594 C 271.77221 259.51594 271.51274 259.38332 271.34623 259.11803 C 271.17972 258.84992 271.09611 258.46753 271.09611 257.97082 C 271.09611 257.45153 271.18548 257.06651 271.36328 256.81533 C 271.54108 256.56133 271.7961 256.43396 272.12912 256.43396 z M 272.12499 256.90008 C 271.95566 256.90008 271.83274 256.9871 271.75654 257.16208 C 271.68316 257.33706 271.64647 257.60675 271.64647 257.97082 C 271.64647 258.31513 271.68316 258.58168 271.75654 258.77077 C 271.83274 258.95703 271.95697 259.05034 272.12912 259.05034 C 272.29564 259.05034 272.41724 258.96411 272.49344 258.79195 C 272.57247 258.6198 272.61178 258.34617 272.61178 257.97082 C 272.61178 257.62933 272.57509 257.3654 272.50171 257.17913 C 272.42833 256.99287 272.30279 256.90008 272.12499 256.90008 z " />
  </g>
</svg>
